<mxfile host="app.diagrams.net" modified="2023-10-02T16:48:41.901Z" agent="Mozilla/5.0 (X11; Linux x86_64; rv:109.0) Gecko/20100101 Firefox/114.0" etag="1Pxh3WarCmEKywY8yitl" version="22.0.0" type="github">
  <diagram name="Página-1" id="eumxeU81mNeOrhYoPqfO">
    <mxGraphModel dx="1434" dy="795" grid="1" gridSize="10" guides="1" tooltips="1" connect="1" arrows="1" fold="1" page="1" pageScale="1" pageWidth="827" pageHeight="1169" background="#ffffff" math="0" shadow="0">
      <root>
        <mxCell id="0" />
        <mxCell id="1" parent="0" />
        <mxCell id="fxUsTy2RBCVXRepyK7W4-14" style="edgeStyle=orthogonalEdgeStyle;sketch=1;hachureGap=4;jiggle=2;curveFitting=1;orthogonalLoop=1;jettySize=auto;html=1;exitX=0.25;exitY=1;exitDx=0;exitDy=0;entryX=0.5;entryY=0;entryDx=0;entryDy=0;fontFamily=Architects Daughter;fontSource=https%3A%2F%2Ffonts.googleapis.com%2Fcss%3Ffamily%3DArchitects%2BDaughter;fontSize=16;endArrow=none;endFill=0;curved=1;" edge="1" parent="1" source="fxUsTy2RBCVXRepyK7W4-2" target="fxUsTy2RBCVXRepyK7W4-12">
          <mxGeometry relative="1" as="geometry" />
        </mxCell>
        <mxCell id="fxUsTy2RBCVXRepyK7W4-2" value="coches" style="whiteSpace=wrap;html=1;sketch=1;hachureGap=4;jiggle=2;curveFitting=1;fontFamily=Architects Daughter;fontSource=https%3A%2F%2Ffonts.googleapis.com%2Fcss%3Ffamily%3DArchitects%2BDaughter;fontSize=20;fillColor=#ffe6cc;strokeColor=#d79b00;" vertex="1" parent="1">
          <mxGeometry x="280" y="265" width="100" height="30" as="geometry" />
        </mxCell>
        <mxCell id="fxUsTy2RBCVXRepyK7W4-13" style="edgeStyle=orthogonalEdgeStyle;rounded=0;sketch=1;hachureGap=4;jiggle=2;curveFitting=1;orthogonalLoop=1;jettySize=auto;html=1;exitX=1;exitY=0.5;exitDx=0;exitDy=0;fontFamily=Architects Daughter;fontSource=https%3A%2F%2Ffonts.googleapis.com%2Fcss%3Ffamily%3DArchitects%2BDaughter;fontSize=16;endArrow=none;endFill=0;" edge="1" parent="1" source="fxUsTy2RBCVXRepyK7W4-3" target="fxUsTy2RBCVXRepyK7W4-12">
          <mxGeometry relative="1" as="geometry" />
        </mxCell>
        <mxCell id="fxUsTy2RBCVXRepyK7W4-3" value="Consecionario" style="whiteSpace=wrap;html=1;sketch=1;hachureGap=4;jiggle=2;curveFitting=1;fontFamily=Architects Daughter;fontSource=https%3A%2F%2Ffonts.googleapis.com%2Fcss%3Ffamily%3DArchitects%2BDaughter;fontSize=20;fillColor=#ffe6cc;strokeColor=#d79b00;" vertex="1" parent="1">
          <mxGeometry x="19" y="410" width="150" height="30" as="geometry" />
        </mxCell>
        <mxCell id="fxUsTy2RBCVXRepyK7W4-15" style="edgeStyle=orthogonalEdgeStyle;rounded=0;sketch=1;hachureGap=4;jiggle=2;curveFitting=1;orthogonalLoop=1;jettySize=auto;html=1;exitX=0.5;exitY=0;exitDx=0;exitDy=0;entryX=0.5;entryY=1;entryDx=0;entryDy=0;fontFamily=Architects Daughter;fontSource=https%3A%2F%2Ffonts.googleapis.com%2Fcss%3Ffamily%3DArchitects%2BDaughter;fontSize=16;endArrow=none;endFill=0;" edge="1" parent="1" source="fxUsTy2RBCVXRepyK7W4-4" target="fxUsTy2RBCVXRepyK7W4-9">
          <mxGeometry relative="1" as="geometry" />
        </mxCell>
        <mxCell id="fxUsTy2RBCVXRepyK7W4-17" style="edgeStyle=orthogonalEdgeStyle;rounded=0;sketch=1;hachureGap=4;jiggle=2;curveFitting=1;orthogonalLoop=1;jettySize=auto;html=1;exitX=0.25;exitY=1;exitDx=0;exitDy=0;entryX=0.5;entryY=0;entryDx=0;entryDy=0;fontFamily=Architects Daughter;fontSource=https%3A%2F%2Ffonts.googleapis.com%2Fcss%3Ffamily%3DArchitects%2BDaughter;fontSize=16;endArrow=none;endFill=0;" edge="1" parent="1" target="fxUsTy2RBCVXRepyK7W4-16">
          <mxGeometry relative="1" as="geometry">
            <mxPoint x="309" y="630" as="sourcePoint" />
          </mxGeometry>
        </mxCell>
        <mxCell id="fxUsTy2RBCVXRepyK7W4-19" style="edgeStyle=orthogonalEdgeStyle;rounded=0;sketch=1;hachureGap=4;jiggle=2;curveFitting=1;orthogonalLoop=1;jettySize=auto;html=1;exitX=0.5;exitY=1;exitDx=0;exitDy=0;entryX=0.5;entryY=0;entryDx=0;entryDy=0;fontFamily=Architects Daughter;fontSource=https%3A%2F%2Ffonts.googleapis.com%2Fcss%3Ffamily%3DArchitects%2BDaughter;fontSize=16;endArrow=none;endFill=0;" edge="1" parent="1" target="fxUsTy2RBCVXRepyK7W4-18">
          <mxGeometry relative="1" as="geometry">
            <mxPoint x="340" y="630" as="sourcePoint" />
          </mxGeometry>
        </mxCell>
        <mxCell id="fxUsTy2RBCVXRepyK7W4-26" style="edgeStyle=orthogonalEdgeStyle;rounded=1;sketch=1;hachureGap=4;jiggle=2;curveFitting=1;orthogonalLoop=1;jettySize=auto;html=1;exitX=0.75;exitY=1;exitDx=0;exitDy=0;fontFamily=Architects Daughter;fontSource=https%3A%2F%2Ffonts.googleapis.com%2Fcss%3Ffamily%3DArchitects%2BDaughter;fontSize=16;endArrow=none;endFill=0;strokeWidth=1;" edge="1" parent="1" source="fxUsTy2RBCVXRepyK7W4-4" target="fxUsTy2RBCVXRepyK7W4-25">
          <mxGeometry relative="1" as="geometry" />
        </mxCell>
        <mxCell id="fxUsTy2RBCVXRepyK7W4-28" style="edgeStyle=orthogonalEdgeStyle;rounded=0;sketch=1;hachureGap=4;jiggle=2;curveFitting=1;orthogonalLoop=1;jettySize=auto;html=1;exitX=1;exitY=0.5;exitDx=0;exitDy=0;entryX=0;entryY=0.5;entryDx=0;entryDy=0;fontFamily=Architects Daughter;fontSource=https%3A%2F%2Ffonts.googleapis.com%2Fcss%3Ffamily%3DArchitects%2BDaughter;fontSize=16;endArrow=none;endFill=0;" edge="1" parent="1" source="fxUsTy2RBCVXRepyK7W4-4" target="fxUsTy2RBCVXRepyK7W4-27">
          <mxGeometry relative="1" as="geometry" />
        </mxCell>
        <mxCell id="fxUsTy2RBCVXRepyK7W4-4" value="Clientes" style="whiteSpace=wrap;html=1;sketch=1;hachureGap=4;jiggle=2;curveFitting=1;fontFamily=Architects Daughter;fontSource=https%3A%2F%2Ffonts.googleapis.com%2Fcss%3Ffamily%3DArchitects%2BDaughter;fontSize=20;fillColor=#ffe6cc;strokeColor=#d79b00;" vertex="1" parent="1">
          <mxGeometry x="303" y="600" width="120" height="30" as="geometry" />
        </mxCell>
        <mxCell id="fxUsTy2RBCVXRepyK7W4-9" value="Compran" style="rhombus;whiteSpace=wrap;html=1;sketch=1;hachureGap=4;jiggle=2;curveFitting=1;fontFamily=Architects Daughter;fontSource=https%3A%2F%2Ffonts.googleapis.com%2Fcss%3Ffamily%3DArchitects%2BDaughter;fontSize=20;fillColor=#dae8fc;strokeColor=#6c8ebf;" vertex="1" parent="1">
          <mxGeometry x="313" y="495" width="100" height="60" as="geometry" />
        </mxCell>
        <mxCell id="fxUsTy2RBCVXRepyK7W4-11" style="edgeStyle=orthogonalEdgeStyle;rounded=0;sketch=1;hachureGap=4;jiggle=2;curveFitting=1;orthogonalLoop=1;jettySize=auto;html=1;exitX=0.5;exitY=0;exitDx=0;exitDy=0;entryX=0.83;entryY=0.967;entryDx=0;entryDy=0;entryPerimeter=0;fontFamily=Architects Daughter;fontSource=https%3A%2F%2Ffonts.googleapis.com%2Fcss%3Ffamily%3DArchitects%2BDaughter;fontSize=16;endArrow=none;endFill=0;" edge="1" parent="1" source="fxUsTy2RBCVXRepyK7W4-9" target="fxUsTy2RBCVXRepyK7W4-2">
          <mxGeometry relative="1" as="geometry" />
        </mxCell>
        <mxCell id="fxUsTy2RBCVXRepyK7W4-12" value="Revisan" style="rhombus;whiteSpace=wrap;html=1;sketch=1;hachureGap=4;jiggle=2;curveFitting=1;fontFamily=Architects Daughter;fontSource=https%3A%2F%2Ffonts.googleapis.com%2Fcss%3Ffamily%3DArchitects%2BDaughter;fontSize=20;fillColor=#dae8fc;strokeColor=#6c8ebf;" vertex="1" parent="1">
          <mxGeometry x="200" y="400" width="75" height="50" as="geometry" />
        </mxCell>
        <mxCell id="fxUsTy2RBCVXRepyK7W4-16" value="&lt;u&gt;NIF&lt;/u&gt;" style="ellipse;whiteSpace=wrap;html=1;sketch=1;hachureGap=4;jiggle=2;curveFitting=1;fontFamily=Architects Daughter;fontSource=https%3A%2F%2Ffonts.googleapis.com%2Fcss%3Ffamily%3DArchitects%2BDaughter;fontSize=20;fillColor=#e1d5e7;strokeColor=#9673a6;" vertex="1" parent="1">
          <mxGeometry x="279" y="660" width="57" height="50" as="geometry" />
        </mxCell>
        <mxCell id="fxUsTy2RBCVXRepyK7W4-18" value="nombre" style="ellipse;whiteSpace=wrap;html=1;sketch=1;hachureGap=4;jiggle=2;curveFitting=1;fontFamily=Architects Daughter;fontSource=https%3A%2F%2Ffonts.googleapis.com%2Fcss%3Ffamily%3DArchitects%2BDaughter;fontSize=20;fillColor=#e1d5e7;strokeColor=#9673a6;" vertex="1" parent="1">
          <mxGeometry x="300" y="730" width="80" height="40" as="geometry" />
        </mxCell>
        <mxCell id="fxUsTy2RBCVXRepyK7W4-20" value="dirección" style="ellipse;whiteSpace=wrap;html=1;sketch=1;hachureGap=4;jiggle=2;curveFitting=1;fontFamily=Architects Daughter;fontSource=https%3A%2F%2Ffonts.googleapis.com%2Fcss%3Ffamily%3DArchitects%2BDaughter;fontSize=20;fillColor=#e1d5e7;strokeColor=#9673a6;" vertex="1" parent="1">
          <mxGeometry x="344" y="684" width="90" height="40" as="geometry" />
        </mxCell>
        <mxCell id="fxUsTy2RBCVXRepyK7W4-21" style="edgeStyle=orthogonalEdgeStyle;rounded=0;sketch=1;hachureGap=4;jiggle=2;curveFitting=1;orthogonalLoop=1;jettySize=auto;html=1;exitX=0.75;exitY=1;exitDx=0;exitDy=0;entryX=0.256;entryY=0.25;entryDx=0;entryDy=0;entryPerimeter=0;fontFamily=Architects Daughter;fontSource=https%3A%2F%2Ffonts.googleapis.com%2Fcss%3Ffamily%3DArchitects%2BDaughter;fontSize=16;endArrow=none;endFill=0;" edge="1" parent="1" target="fxUsTy2RBCVXRepyK7W4-20">
          <mxGeometry relative="1" as="geometry">
            <mxPoint x="367" y="630" as="sourcePoint" />
          </mxGeometry>
        </mxCell>
        <mxCell id="fxUsTy2RBCVXRepyK7W4-24" style="edgeStyle=orthogonalEdgeStyle;rounded=0;sketch=1;hachureGap=4;jiggle=2;curveFitting=1;orthogonalLoop=1;jettySize=auto;html=1;exitX=1;exitY=0.5;exitDx=0;exitDy=0;entryX=0;entryY=0.5;entryDx=0;entryDy=0;fontFamily=Architects Daughter;fontSource=https%3A%2F%2Ffonts.googleapis.com%2Fcss%3Ffamily%3DArchitects%2BDaughter;fontSize=16;endArrow=none;endFill=0;" edge="1" parent="1" source="fxUsTy2RBCVXRepyK7W4-22" target="fxUsTy2RBCVXRepyK7W4-2">
          <mxGeometry relative="1" as="geometry" />
        </mxCell>
        <mxCell id="fxUsTy2RBCVXRepyK7W4-22" value="Vende" style="rhombus;whiteSpace=wrap;html=1;sketch=1;hachureGap=4;jiggle=2;curveFitting=1;fontFamily=Architects Daughter;fontSource=https%3A%2F%2Ffonts.googleapis.com%2Fcss%3Ffamily%3DArchitects%2BDaughter;fontSize=20;fillColor=#dae8fc;strokeColor=#6c8ebf;" vertex="1" parent="1">
          <mxGeometry x="78" y="255" width="80" height="50" as="geometry" />
        </mxCell>
        <mxCell id="fxUsTy2RBCVXRepyK7W4-23" style="edgeStyle=orthogonalEdgeStyle;rounded=0;sketch=1;hachureGap=4;jiggle=2;curveFitting=1;orthogonalLoop=1;jettySize=auto;html=1;exitX=0.5;exitY=1;exitDx=0;exitDy=0;entryX=0.66;entryY=-0.133;entryDx=0;entryDy=0;entryPerimeter=0;fontFamily=Architects Daughter;fontSource=https%3A%2F%2Ffonts.googleapis.com%2Fcss%3Ffamily%3DArchitects%2BDaughter;fontSize=16;endArrow=none;endFill=0;" edge="1" parent="1" source="fxUsTy2RBCVXRepyK7W4-22" target="fxUsTy2RBCVXRepyK7W4-3">
          <mxGeometry relative="1" as="geometry" />
        </mxCell>
        <mxCell id="fxUsTy2RBCVXRepyK7W4-25" value="ciudad" style="ellipse;whiteSpace=wrap;html=1;sketch=1;hachureGap=4;jiggle=2;curveFitting=1;fontFamily=Architects Daughter;fontSource=https%3A%2F%2Ffonts.googleapis.com%2Fcss%3Ffamily%3DArchitects%2BDaughter;fontSize=20;fillColor=#e1d5e7;strokeColor=#9673a6;" vertex="1" parent="1">
          <mxGeometry x="440" y="684" width="80" height="40" as="geometry" />
        </mxCell>
        <mxCell id="fxUsTy2RBCVXRepyK7W4-27" value="tlf" style="ellipse;whiteSpace=wrap;html=1;sketch=1;hachureGap=4;jiggle=2;curveFitting=1;fontFamily=Architects Daughter;fontSource=https%3A%2F%2Ffonts.googleapis.com%2Fcss%3Ffamily%3DArchitects%2BDaughter;fontSize=20;fillColor=#e1d5e7;strokeColor=#9673a6;" vertex="1" parent="1">
          <mxGeometry x="450" y="600" width="80" height="30" as="geometry" />
        </mxCell>
        <mxCell id="fxUsTy2RBCVXRepyK7W4-29" value="1:1" style="text;html=1;align=center;verticalAlign=middle;resizable=0;points=[];autosize=1;strokeColor=none;fillColor=none;fontSize=20;fontFamily=Architects Daughter;" vertex="1" parent="1">
          <mxGeometry x="336" y="570" width="30" height="40" as="geometry" />
        </mxCell>
        <mxCell id="fxUsTy2RBCVXRepyK7W4-30" value="1:N" style="text;html=1;align=center;verticalAlign=middle;resizable=0;points=[];autosize=1;strokeColor=none;fillColor=none;fontSize=20;fontFamily=Architects Daughter;" vertex="1" parent="1">
          <mxGeometry x="360" y="290" width="40" height="40" as="geometry" />
        </mxCell>
        <mxCell id="fxUsTy2RBCVXRepyK7W4-31" value="0:N" style="text;html=1;align=center;verticalAlign=middle;resizable=0;points=[];autosize=1;strokeColor=none;fillColor=none;fontSize=20;fontFamily=Architects Daughter;" vertex="1" parent="1">
          <mxGeometry x="119" y="440" width="50" height="40" as="geometry" />
        </mxCell>
        <mxCell id="fxUsTy2RBCVXRepyK7W4-35" value="N:M" style="text;html=1;align=center;verticalAlign=middle;resizable=0;points=[];autosize=1;strokeColor=none;fillColor=none;fontSize=20;fontFamily=Architects Daughter;" vertex="1" parent="1">
          <mxGeometry x="266" y="407" width="60" height="40" as="geometry" />
        </mxCell>
      </root>
    </mxGraphModel>
  </diagram>
</mxfile>
